# xmcd
#
# Track frame offsets:
#   150
#   20015
#   40683
#   52917
#   67057
#   81507
#   98216
#   120132
#   140451
#   154726
#   172849
#   190469
#   200975
#   218293
#   229808
#
# Disc length: 3337 seconds
#
# Revision: 0
# Processed by: cddbd v1.5.2PL0 Copyright (c) Steve Scherf et al.
# Submitted via: uFREEDB ActiveX Control 1.5
#
DISCID=ca0d070f
DTITLE=priscila - pri
DYEAR=1900
DGENRE=Blues
TTITLE0=a
TTITLE1=s
TTITLE2=d
TTITLE3=g
TTITLE4=i
TTITLE5=f
TTITLE6=o
TTITLE7=i
TTITLE8=uy
TTITLE9=tr
TTITLE10=egf
TTITLE11=gf
TTITLE12=gb
TTITLE13=h
TTITLE14=hf
EXTD=
EXTT0=
EXTT1=
EXTT2=
EXTT3=
EXTT4=
EXTT5=
EXTT6=
EXTT7=
EXTT8=
EXTT9=
EXTT10=
EXTT11=
EXTT12=
EXTT13=
EXTT14=
PLAYORDER=
